<svg width="500" height="500" viewBox="0 0 500 500" fill="none" xmlns="http://www.w3.org/2000/svg">
<path d="M250 31.25C284.518 31.25 312.5 59.2322 312.5 93.75V218.75H187.5V93.75C187.5 59.2322 215.482 31.25 250 31.25ZM343.75 218.75V93.75C343.75 41.9733 301.777 0 250 0C198.223 0 156.25 41.9733 156.25 93.75V218.75C121.732 218.75 93.75 246.732 93.75 281.25V437.5C93.75 472.018 121.732 500 156.25 500H343.75C378.268 500 406.25 472.018 406.25 437.5V281.25C406.25 246.732 378.268 218.75 343.75 218.75Z" fill="#022747"/>
</svg>
